<svg width="100%" viewBox="0 0 680 370" xmlns="http://www.w3.org/2000/svg" style="font-family: sans-serif;">
  <style>
    text { font-family: sans-serif; fill: #444; }
    .label { font-size: 11px; }
    .head  { font-size: 12px; font-weight: 600; }
    .ch    { font-size: 10px; fill: #888; }
  </style>
  <rect x="110" y="18" width="106" height="28" rx="4" fill="#e8e6df" stroke="#b4b2a9" stroke-width="0.5"/>
  <rect x="216" y="18" width="106" height="28" rx="4" fill="#e8e6df" stroke="#b4b2a9" stroke-width="0.5"/>
  <rect x="322" y="18" width="106" height="28" rx="4" fill="#e8e6df" stroke="#b4b2a9" stroke-width="0.5"/>
  <rect x="428" y="18" width="106" height="28" rx="4" fill="#e8e6df" stroke="#b4b2a9" stroke-width="0.5"/>
  <rect x="534" y="18" width="106" height="28" rx="4" fill="#e8e6df" stroke="#b4b2a9" stroke-width="0.5"/>
  <text class="head" x="163" y="36" text-anchor="middle">Week 12</text>
  <text class="head" x="269" y="36" text-anchor="middle">Week 13</text>
  <text class="head" x="375" y="36" text-anchor="middle">Week 14</text>
  <text class="head" x="481" y="36" text-anchor="middle">Week 15</text>
  <text class="head" x="587" y="36" text-anchor="middle">Week 16</text>
  <line x1="40" y1="52" x2="640" y2="52" stroke="#d3d1c7" stroke-width="0.5"/>
  <line x1="216" y1="52" x2="216" y2="330" stroke="#d3d1c7" stroke-width="0.5" stroke-dasharray="3 3"/>
  <line x1="322" y1="52" x2="322" y2="330" stroke="#d3d1c7" stroke-width="0.5" stroke-dasharray="3 3"/>
  <line x1="428" y1="52" x2="428" y2="330" stroke="#d3d1c7" stroke-width="0.5" stroke-dasharray="3 3"/>
  <line x1="534" y1="52" x2="534" y2="330" stroke="#d3d1c7" stroke-width="0.5" stroke-dasharray="3 3"/>
  <text class="label" x="104" y="76" text-anchor="end">S1 - GDD</text>
  <rect x="114" y="61" width="96" height="28" rx="6" fill="#9fe1cb" stroke="#0f6e56" stroke-width="0.5"/>
  <text class="label" x="162" y="79" text-anchor="middle" fill="#085041">1-3 page concept</text>
  <text class="label" x="104" y="118" text-anchor="end">S2 - Architecture</text>
  <rect x="114" y="103" width="202" height="28" rx="6" fill="#cecbf6" stroke="#534ab7" stroke-width="0.5"/>
  <text class="label" x="215" y="121" text-anchor="middle" fill="#3c3489">Class hierarchy + design</text>
  <text class="label" x="104" y="160" text-anchor="end">S3 - Charter</text>
  <rect x="114" y="145" width="96" height="28" rx="6" fill="#d3d1c7" stroke="#5f5e5a" stroke-width="0.5"/>
  <text class="label" x="162" y="163" text-anchor="middle" fill="#444441">Team + HedgeDoc</text>
  <text class="label" x="104" y="202" text-anchor="end">S4 - Sprints</text>
  <rect x="220" y="187" width="96" height="28" rx="6" fill="#f5c4b3" stroke="#993c1d" stroke-width="0.5"/>
  <text class="label" x="268" y="205" text-anchor="middle" fill="#712b13">Sprint 1</text>
  <rect x="326" y="187" width="96" height="28" rx="6" fill="#f5c4b3" stroke="#993c1d" stroke-width="0.5"/>
  <text class="label" x="374" y="205" text-anchor="middle" fill="#712b13">Sprint 2</text>
  <rect x="432" y="187" width="96" height="28" rx="6" fill="#f5c4b3" stroke="#993c1d" stroke-width="0.5"/>
  <text class="label" x="480" y="205" text-anchor="middle" fill="#712b13">Sprint 3</text>
  <text class="label" x="104" y="244" text-anchor="end">S5 - Playtest</text>
  <rect x="538" y="229" width="96" height="28" rx="6" fill="#fac775" stroke="#854f0b" stroke-width="0.5"/>
  <text class="label" x="586" y="247" text-anchor="middle" fill="#633806">Team swap</text>
  <text class="label" x="104" y="287" text-anchor="end">S6 - Demo</text>
  <rect x="538" y="272" width="96" height="28" rx="6" fill="#c0dd97" stroke="#3b6d11" stroke-width="0.5"/>
  <text class="label" x="586" y="290" text-anchor="middle" fill="#27500a">Live + defense</text>
  <text class="ch" x="163" y="348" text-anchor="middle">Ch. 12 - Exceptions</text>
  <text class="ch" x="269" y="348" text-anchor="middle">Ch. 13 - Interfaces</text>
  <text class="ch" x="375" y="348" text-anchor="middle">Ch. 14 - Lists</text>
  <text class="ch" x="481" y="348" text-anchor="middle">Ch. 15 - I/O</text>
  <text class="ch" x="587" y="348" text-anchor="middle">Final week</text>
</svg>
